<?xml version="1.0" encoding="UTF-8" standalone="no"?>
<!-- Created with Inkscape (http://www.inkscape.org/) -->

<svg
   xmlns:dc="http://purl.org/dc/elements/1.1/"
   xmlns:cc="http://creativecommons.org/ns#"
   xmlns:rdf="http://www.w3.org/1999/02/22-rdf-syntax-ns#"
   xmlns:svg="http://www.w3.org/2000/svg"
   xmlns="http://www.w3.org/2000/svg"
   xmlns:xlink="http://www.w3.org/1999/xlink"
   xmlns:sodipodi="http://sodipodi.sourceforge.net/DTD/sodipodi-0.dtd"
   xmlns:inkscape="http://www.inkscape.org/namespaces/inkscape"
   width="32"
   height="32"
   id="svg3013"
   version="1.1"
   inkscape:version="0.48.4 r9939"
   sodipodi:docname="New document 2">
  <defs
     id="defs3015">
    <radialGradient
       inkscape:collect="always"
       xlink:href="#linearGradient4792"
       id="radialGradient4798"
       cx="-24.462278"
       cy="265.37036"
       fx="-24.462278"
       fy="265.37036"
       r="162.47086"
       gradientTransform="matrix(1.041746,-0.52560221,0.18629987,0.36924722,-13.058305,195.60019)"
       gradientUnits="userSpaceOnUse" />
    <linearGradient
       inkscape:collect="always"
       id="linearGradient4792">
      <stop
         style="stop-color:#ffb400;stop-opacity:0.37297297"
         offset="0"
         id="stop4794" />
      <stop
         style="stop-color:#ffb400;stop-opacity:1"
         offset="1"
         id="stop4796" />
    </linearGradient>
    <radialGradient
       r="162.47086"
       fy="265.37036"
       fx="-24.462278"
       cy="265.37036"
       cx="-24.462278"
       gradientTransform="matrix(0.10259032,-0.05176089,0.01834666,0.03636316,11.712479,-13.446815)"
       gradientUnits="userSpaceOnUse"
       id="radialGradient3011"
       xlink:href="#linearGradient4792"
       inkscape:collect="always" />
  </defs>
  <sodipodi:namedview
     id="base"
     pagecolor="#ffffff"
     bordercolor="#666666"
     borderopacity="1.0"
     inkscape:pageopacity="0.0"
     inkscape:pageshadow="2"
     inkscape:zoom="15.696216"
     inkscape:cx="23.045929"
     inkscape:cy="9.1753588"
     inkscape:current-layer="layer1"
     showgrid="true"
     inkscape:grid-bbox="true"
     inkscape:document-units="px"
     inkscape:window-width="1281"
     inkscape:window-height="977"
     inkscape:window-x="516"
     inkscape:window-y="68"
     inkscape:window-maximized="0" />
  <metadata
     id="metadata3018">
    <rdf:RDF>
      <cc:Work
         rdf:about="">
        <dc:format>image/svg+xml</dc:format>
        <dc:type
           rdf:resource="http://purl.org/dc/dcmitype/StillImage" />
        <dc:title></dc:title>
      </cc:Work>
    </rdf:RDF>
  </metadata>
  <g
     id="layer1"
     inkscape:label="Layer 1"
     inkscape:groupmode="layer"
     transform="translate(0,16)">
    <path
       style="fill:url(#radialGradient3011);fill-opacity:1"
       d="M 3.7453873,10.385478 C 3.5261303,10.166225 3.4575247,10.006541 3.4575247,9.715466 c 0,-1.381495 2.2574434,-3.287851 3.5959953,-3.03674 1.2126216,0.227488 1.0923312,1.674399 -0.2452733,2.950254 -0.7499978,0.715374 -1.4393079,1.042128 -2.2011655,1.043408 -0.5035871,9.84e-4 -0.6090701,-0.03428 -0.8616939,-0.28691 z m 7.6909167,0.0168 c -1.056368,-0.530645 -1.027469,-1.80082 0.06789,-2.983933 1.204077,-1.3005556 3.053598,-1.6755846 3.812932,-0.773169 0.340683,0.404877 0.405863,0.860264 0.208277,1.455133 -0.550411,1.657129 -2.824531,2.937408 -4.089101,2.302069 z M 0.17373576,7.538884 C -0.21315264,7.111375 0.05981696,6.2954854 0.85616306,5.4991434 2.079066,4.2762394 3.8514426,3.9721744 3.8514426,4.9852884 c 0,0.749546 -1.0560625,2.0084726 -2.087703,2.4887456 C 1.1219694,7.772808 0.41165466,7.80178 0.17373576,7.538874 z M 9.415517,6.714988 C 9.145892,6.562088 9.0741123,6.436341 9.0723475,6.1138014 c -0.00554,-1.013982 1.7374815,-2.177129 2.5900465,-1.728378 0.285041,0.15004 0.359506,0.274855 0.361315,0.605647 0.0056,1.018324 -1.775955,2.1958486 -2.608192,1.7239176 z M 20.346709,6.318451 C 19.842358,6.1396314 19.538575,5.8667464 19.367275,5.4386294 c -0.254605,-0.636325 -0.07555,-1.223152 0.593803,-1.946137 0.716558,-0.773968 1.478376,-1.122673 2.552172,-1.1682 0.671643,-0.02847 0.852342,9.9e-5 1.225226,0.194044 0.600454,0.312228 0.831936,0.65726 0.82954,1.236464 -0.0032,0.793389 -0.546943,1.569189 -1.513129,2.159236 C 22.297443,6.376603 21.040247,6.564344 20.346709,6.318451 z M 5.1592384,5.9443684 c -0.717873,-0.28886 -0.04745,-1.556385 1.0985057,-2.076878 0.492336,-0.223615 0.8304928,-0.233563 1.1170368,-0.03286 0.2846078,0.19934 0.2765334,0.469599 -0.029638,0.99204 -0.2836586,0.484025 -0.9032837,0.949014 -1.4767745,1.108226 -0.450947,0.125199 -0.4224915,0.124819 -0.7091307,0.0094 z M 15.43603,4.8559264 c -0.858299,-0.675135 0.442548,-2.272486 1.86744,-2.293078 1.190053,-0.0172 1.390591,1.009569 0.371874,1.904017 -0.483605,0.424613 -0.909169,0.593169 -1.497557,0.593169 -0.338791,0 -0.559478,-0.06072 -0.741757,-0.204108 z M 8.5018773,4.4143354 c -0.1545817,-0.10826 -0.2188712,-0.253544 -0.2188712,-0.494591 0,-0.649727 1.1712616,-1.617127 1.9579129,-1.617127 0.523783,0 0.701027,0.1502 0.701027,0.594056 0,0.498541 -0.521349,1.108097 -1.2309913,1.439264 -0.5765021,0.269026 -0.9063781,0.290423 -1.2090774,0.0784 z M 12.81305,4.1038604 c -0.282097,-0.10372 -0.492395,-0.355886 -0.492395,-0.590401 0,-0.774264 1.150319,-1.695812 2.123353,-1.701074 1.082298,-0.0058 1.083321,1.119434 0.0017,1.863614 -0.571588,0.393265 -1.246043,0.570016 -1.632652,0.427861 z M 0.39028266,3.3708704 C -0.31825264,3.1178674 0.18610476,2.0385654 1.3878868,1.2360423 2.1476785,0.72867236 2.8700461,0.54351876 3.2130078,0.76823646 3.5449123,0.98570796 3.5302929,1.3847824 3.1723198,1.8789494 2.4608215,2.8611424 1.0626254,3.6109534 0.39028236,3.3708704 z m 2.96982544,-0.13142 c -0.4120901,-0.496533 0.9211056,-1.823144 1.8321995,-1.823144 0.648713,0 0.7058575,0.503237 0.1282957,1.129811 -0.6565814,0.712309 -1.6524543,1.0645 -1.9604952,0.693332 z m 2.6085484,-0.11391 c -0.5796229,-0.579631 1.110804,-2.1060322 2.066652,-1.8661291 0.1469891,0.036892 0.2681588,0.1548901 0.3034517,0.2955071 0.21564,0.859177 -1.767414,2.173302 -2.3701037,1.570621 z m 5.7365035,-1.02777 c -0.445083,-0.259234 0.06977,-1.0614617 0.82679,-1.28827124 0.468967,-0.1405051 0.70935,-0.037477 0.753188,0.32281594 0.03827,0.3145453 -0.474671,0.8389383 -0.949671,0.9708713 -0.431512,0.119859 -0.414982,0.120006 -0.630307,-0.00542 z M 9.1792605,1.7729624 C 8.8065334,1.3238541 10.079779,0.32516776 10.641686,0.62589076 c 0.110979,0.059394 0.201781,0.1744636 0.201781,0.2557101 0,0.60863654 -1.3145217,1.31270854 -1.6642065,0.89136154 z m 7.9887885,-0.01756 c -0.289586,-0.202833 -0.28839,-0.7005265 0.0028,-1.12694744 0.540088,-0.7911661 2.050081,-1.2182282 2.54809,-0.7206619 0.476478,0.4760582 0.09544,1.29000754 -0.816667,1.74453234 -0.600044,0.299018 -1.38756,0.345825 -1.734131,0.103076 z m 4.04042,-0.5793508 c -0.650663,-0.29300714 -0.661489,-0.93790024 -0.0259,-1.54252394 1.109132,-1.05509326 3.012592,-0.81817216 2.722204,0.3388295 -0.218079,0.8688947 -1.835928,1.59114124 -2.696308,1.20369544 z m -6.204256,-0.06068 c -0.159624,-0.062412 -0.221579,-0.16727774 -0.221579,-0.37504524 0,-0.585 1.056449,-1.1766139 1.632444,-0.9141737 0.769399,0.3505625 -0.603353,1.60495454 -1.410865,1.28921894 z M 5.7025549,0.95291546 c -0.4319583,-0.1073138 -0.2392601,-0.8060335 0.3452465,-1.2518587 0.6630199,-0.5057093 1.4067949,-0.6882662 1.643268,-0.4033334 0.4544412,0.5475691 -1.1319041,1.86800374 -1.9885145,1.6551921 z m 2.2850137,-0.5604402 c 0,-0.2687782 0.5569432,-0.8102889 0.9295688,-0.9038125 0.7026659,-0.1763576 0.842977,0.2496683 0.2566793,0.7793526 -0.3191042,0.288292 -0.4777886,0.3604564 -0.792615,0.3604564 -0.3496848,0 -0.3936331,-0.026348 -0.3936331,-0.2359965 z m 3.5124264,0.1703436 c -0.117682,-0.1176819 -0.07007,-0.2350967 0.194925,-0.4806849 0.325257,-0.301437 0.822693,-0.3326885 0.822693,-0.051685 0,0.3588474 -0.782023,0.7679653 -1.017618,0.5323696 z m 2.136021,-0.3787572 c -0.07391,-0.1926195 0.134877,-0.4400788 0.501308,-0.5941525 0.347128,-0.1459557 0.546831,-0.089116 0.546831,0.1556377 0,0.4071189 -0.913525,0.7893137 -1.048139,0.438514 z M 4.1568216,3.3605706e-4 C 3.8095317,-0.41812284 5.0402441,-1.5369036 5.8487364,-1.5377022 c 0.471286,-4.924e-4 0.5643242,0.2041256 0.3090857,0.67967776 -0.361259,0.6730847 -1.6838946,1.2404499 -2.0010005,0.85836049706 z M 10.055633,-0.05373594 c 0,-0.3815124 0.853013,-0.7924386 1.034705,-0.4984536 0.03385,0.054762 -0.07092,0.2320249 -0.232811,0.393917 -0.346217,0.3462176 -0.801894,0.4056201 -0.801894,0.104536 z m 16.510293,0.0482341 c -0.801521,-0.2153936 -1.212666,-0.8212997 -1.028188,-1.51524716 0.10526,-0.3959612 0.796428,-1.1096203 1.346361,-1.3901757 1.025194,-0.5230142 2.362663,-0.6110191 3.153611,-0.2075065 1.455679,0.7426336 0.400251,2.59070206 -1.771956,3.10272296 -0.755734,0.1781376 -1.067952,0.1800116 -1.699828,0.0102 z m -15.003378,-0.4153972 c -0.07375,-0.1921916 0.289405,-0.5262964 0.572058,-0.5262964 0.299658,0 0.228542,0.3668844 -0.104498,0.5391066 -0.36349,0.1879676 -0.390801,0.1872196 -0.467559,-0.01282 z m 1.348982,0.030602 c 0,-0.210845 0.336593,-0.4584199 0.623249,-0.4584199 0.307699,0 0.344735,0.1909996 0.08297,0.4278933 -0.218052,0.1973356 -0.706219,0.2184374 -0.706219,0.030528 z m 3.025129,-0.483039 c -0.07557,-0.21076416 0.1279,-0.47853796 0.473303,-0.62285326 0.384025,-0.1604556 0.637695,-0.09742 0.637695,0.1584657 0,0.39620226 -0.98745,0.80894846 -1.110998,0.46438736 z m 1.856626,-0.031654 c -0.08512,-0.0851138 -0.154759,-0.20820066 -0.154759,-0.27352496 0,-0.2359374 0.329787,-0.5815747 0.727022,-0.7619659 0.520645,-0.2364339 0.873052,-0.2365825 1.086737,-4.924e-4 0.15584,0.1721996 0.15736,0.2127445 0.018,0.4823107 -0.167859,0.3246524 -0.853126,0.70842586 -1.264893,0.70842586 -0.14152,0 -0.326951,-0.069638 -0.412063,-0.1547536 z M 12.732813,-1.0210547 c 0.01972,-0.1039438 0.139827,-0.1847056 0.302658,-0.2034994 0.287484,-0.033182 0.345008,0.064456 0.151801,0.25766286 -0.184665,0.1846656 -0.492786,0.1479437 -0.454458,-0.054164 z m 2.002802,0.07745 c -0.09188,-0.1486718 0.316253,-0.4959877 0.582843,-0.4959877 0.324099,0 0.407,0.1682456 0.197154,0.400122 -0.180024,0.1989235 -0.678445,0.260182 -0.779998,0.095866 z M 2.725966,-1.1019485 c -0.2001313,-0.2001314 -0.1946234,-0.3202917 0.031696,-0.6914333 0.3717314,-0.6096029 1.4122588,-1.2905019 2.2347284,-1.4623589 0.2214589,-0.046275 0.3665158,-0.012771 0.5348443,0.1235333 0.2131503,0.1725984 0.2210219,0.2110488 0.1020235,0.4983361 -0.1939105,0.4681407 -1.1051984,1.248024 -1.7325985,1.4827649 -0.6521716,0.24400886 -0.9627997,0.25705236 -1.1706933,0.049158 z m 6.9680118,-0.00169 c -0.044359,-0.1156 0.020603,-0.2438711 0.202936,-0.400707 0.4792872,-0.4122703 0.9820392,-0.2143891 0.5401572,0.212598 -0.330307,0.31917506 -0.6607026,0.40281046 -0.7430932,0.1881052 z m 1.0510092,0.023992 c 0,-0.1957535 0.328897,-0.4584196 0.57401,-0.4584196 0.278162,0 0.275381,0.2411539 -0.005,0.4375737 -0.268957,0.18837766 -0.568968,0.19936966 -0.568968,0.020842 z m 3.274004,-0.089128 c 0.0513,-0.1555156 0.478103,-0.374804 0.592222,-0.3042751 0.04718,0.029156 0.0095,0.1372417 -0.08362,0.2401937 -0.189225,0.2090907 -0.57235,0.25736416 -0.508598,0.064082 z m -5.7857689,-0.07474 C 8.0338499,-1.5661056 8.7737773,-2.227425 9.3340866,-2.227425 c 0.4001781,0 0.4867265,0.1390137 0.2815264,0.4521888 -0.3151728,0.4810158 -1.2027383,0.82240666 -1.3823909,0.5317227 z m 3.4965569,0.00434 c 0,-0.1035758 0.317541,-0.2989022 0.485922,-0.2989022 0.163808,0 0.12314,0.2673858 -0.05082,0.3341409 -0.231643,0.088893 -0.435102,0.072415 -0.435102,-0.035236 z m 8.876615,-0.3533591 c -0.332933,-0.4232547 -0.09894,-0.9538065 0.601277,-1.3633539 0.89507,-0.5235104 1.927858,-0.5208879 2.167697,0.0055 0.16566,0.3636038 -0.145959,0.8853269 -0.751884,1.2587955 -0.379193,0.2337207 -0.620219,0.3041364 -1.141918,0.3336151 -0.625172,0.035326 -0.672952,0.02252 -0.875172,-0.2345597 z M 6.8492604,-1.7773091 C 6.6608648,-1.9160298 6.6608126,-1.923145 6.8456857,-2.2692234 7.1880219,-2.9100679 8.461098,-3.5139336 8.8279438,-3.2094782 c 0.3231329,0.2681766 -0.1874886,0.9597349 -0.9880949,1.3382219 -0.5733134,0.2710344 -0.7299191,0.2858872 -0.9905895,0.093947 z m 8.5242496,-0.036506 c 0,-0.1525097 0.238854,-0.3151325 0.462852,-0.3151325 0.250533,0 0.288197,0.095872 0.108328,0.2757418 -0.13191,0.1319077 -0.57118,0.1622036 -0.57118,0.03939 z m -3.939168,-0.1202856 c 0,-0.1257018 0.470689,-0.3478591 0.556085,-0.2624639 0.03457,0.034572 0.0068,0.1304017 -0.06171,0.2129554 -0.140015,0.1687076 -0.494371,0.2041947 -0.494371,0.049508 z m 4.957694,-0.052022 c -0.0835,-0.217575 0.283572,-0.5367421 0.617291,-0.5367421 0.16452,0 0.235287,0.055612 0.235287,0.1848996 0,0.2258847 -0.160919,0.3684618 -0.516648,0.457743 -0.206634,0.051862 -0.284852,0.027204 -0.33593,-0.1059017 z m -5.60519,-0.056289 c -0.09014,-0.1458417 0.299826,-0.4804534 0.559926,-0.4804534 0.210735,0 0.248426,0.2214157 0.06295,0.369806 -0.220449,0.1763676 -0.546466,0.2342821 -0.622876,0.1106478 z m 6.979823,-0.4467321 c -0.134579,-0.3506776 0.899654,-0.8548999 1.09736,-0.535004 0.09686,0.1567136 -0.0585,0.4053749 -0.346228,0.554165 -0.368085,0.1903436 -0.67373,0.1825456 -0.751132,-0.01916 z m -7.514078,-0.075927 c 0,-0.3271281 0.690734,-0.6851611 0.906186,-0.4697092 0.07292,0.072922 0.02241,0.1794856 -0.169309,0.3571624 -0.296784,0.2750509 -0.736877,0.3422677 -0.736877,0.1125472 z m 6.346565,-0.1633986 c -0.08804,-0.1424517 0.14472,-0.3852704 0.369301,-0.3852704 0.12524,0 0.18104,0.056126 0.16028,0.1612236 -0.03846,0.1946916 -0.442165,0.3654878 -0.529581,0.2240462 z m -4.770897,-0.070137 c 0,-0.1227257 0.222469,-0.3151333 0.364373,-0.3151333 0.181187,0 0.159399,0.2623248 -0.02775,0.3341409 -0.21341,0.081894 -0.336623,0.074938 -0.336623,-0.019 z M 9.7355745,-3.0904237 c -0.2131799,-0.046706 -0.2192599,-0.2079389 -0.018642,-0.4943627 0.3279527,-0.4682154 1.3234927,-0.7203645 1.3234927,-0.3352113 0,0.3915582 -0.846809,0.9299272 -1.3048505,0.829574 z m -3.0036156,-0.088538 c -0.067704,-0.02732 -0.1230997,-0.1247497 -0.1230997,-0.2165113 0,-0.4891984 0.9713612,-1.1954559 1.6441868,-1.1954559 0.3800362,0 0.4238763,0.02409 0.4238763,0.2329171 0,0.6175217 -1.3333838,1.4258282 -1.9449642,1.1790501 z m 4.8427211,-0.0452 c -0.09014,-0.1458414 0.299825,-0.4804531 0.559926,-0.4804531 0.210734,0 0.248425,0.2214156 0.06295,0.369806 -0.220449,0.1763677 -0.546466,0.2342821 -0.622876,0.1106478 z m 8.025637,-0.046694 c -0.300897,-0.362559 0.439406,-1.020866 1.181295,-1.0504502 0.506261,-0.02019 0.670402,0.1282198 0.542875,0.4908382 -0.19238,0.5470558 -1.407327,0.9413862 -1.72417,0.559611 z m -2.157237,-0.01522 c 0.0044,-0.2139135 0.432693,-0.5170157 0.730612,-0.5170157 0.219732,0 0.19252,0.3664697 -0.0363,0.4889304 -0.220137,0.1178157 -0.696546,0.1370857 -0.69432,0.028086 z m 6.716991,-0.079446 c -0.533493,-0.3736724 -0.10448,-1.1735223 0.8644,-1.6115884 0.543511,-0.245741 1.435843,-0.2719346 1.750712,-0.05139 0.507815,0.3556872 0.09512,1.1611841 -0.811136,1.583194 -0.593209,0.2762342 -1.468251,0.3149355 -1.803976,0.079784 z M 12.616092,-3.7067262 c 0,-0.1343497 0.473534,-0.345015 0.566517,-0.252032 0.08498,0.084976 -0.247185,0.3526226 -0.43762,0.3526226 -0.07089,0 -0.128896,-0.045268 -0.128896,-0.1005898 z m 4.494757,-0.1464577 c 0.0601,-0.1566196 0.495483,-0.3103739 0.59554,-0.2103151 0.10768,0.1076818 -0.187339,0.3588838 -0.421503,0.3588838 -0.165499,0 -0.214875,-0.042148 -0.174039,-0.1485697 z m -5.447216,-0.1061779 c -0.08205,-0.213824 0.288479,-0.5330867 0.618691,-0.5330867 0.434973,0 0.185768,0.4776242 -0.331452,0.6352569 -0.161324,0.049166 -0.23989,0.02122 -0.287239,-0.1021698 z m 7.025344,-0.00786 c -0.247782,-0.2477795 0.219587,-0.7221805 0.711476,-0.7221805 0.457261,0 0.310386,0.501468 -0.198879,0.6789964 -0.363661,0.1267717 -0.423941,0.1318517 -0.512605,0.043184 z m -9.4795898,-0.365902 c -0.2185745,-0.5695938 1.5776708,-1.6366515 2.0164518,-1.1978715 0.141433,0.1414357 0.142317,0.1842436 0.0087,0.4222769 -0.243759,0.4342765 -0.90419,0.8346632 -1.4657804,0.8886249 -0.3988563,0.038325 -0.5099203,0.015884 -0.5593884,-0.1130303 z m 3.6036628,0.052894 c 0,-0.1538257 0.358219,-0.4091802 0.57401,-0.4091802 0.266678,0 0.28175,0.2521551 0.02334,0.3904524 -0.229627,0.1228917 -0.597349,0.1344217 -0.597349,0.01872 z m 4.923961,-0.1573978 c 0,-0.1725256 0.373611,-0.4487403 0.606975,-0.4487403 0.266773,0 0.304591,0.1717037 0.08596,0.3903254 -0.233054,0.2330549 -0.692945,0.2718232 -0.692945,0.058416 z m -3.849522,-0.09342 c 0.160562,-0.1934656 0.501229,-0.268526 0.501229,-0.1104378 0,0.1352757 -0.210078,0.2475147 -0.463269,0.2475147 -0.118464,0 -0.126786,-0.03005 -0.03796,-0.1370757 z m 3.11663,0.060712 c -0.10542,-0.1054117 -0.05324,-0.1882355 0.18774,-0.2980325 0.242035,-0.1102798 0.417995,-0.01518 0.306301,0.1655496 -0.06812,0.1102078 -0.421539,0.2049826 -0.494041,0.1324818 z m 5.041356,-0.1284837 c -0.298595,-0.1739156 -0.218585,-0.6638344 0.16794,-1.0283818 1.102817,-1.04009 3.056655,-0.6896261 2.203319,0.3952128 -0.449369,0.57128 -1.840002,0.9426026 -2.371267,0.633169 z M 6.7319589,-4.8977494 c -0.2042784,-0.2099056 -0.1409031,-0.4607408 0.2163047,-0.856127 0.5979527,-0.661864 1.9027687,-1.226644 2.3191231,-1.0038181 0.3360631,0.1798565 0.2490361,0.5753528 -0.2269621,1.0314396 -0.7194615,0.6893652 -1.99749,1.1480478 -2.3084657,0.8285055 z m 4.9993281,-0.06248 c 0.0021,-0.2458052 0.09965,-0.3655195 0.490888,-0.6027332 0.580984,-0.3522591 1.09708,-0.2341845 0.874251,0.2000152 -0.233462,0.4549206 -1.368526,0.7897667 -1.365139,0.4027189 z m 3.346785,0.071748 c 0,-0.1343498 0.473533,-0.3450149 0.566516,-0.2520319 0.08498,0.084976 -0.247184,0.3526224 -0.437619,0.3526224 -0.07089,0 -0.128896,-0.045266 -0.128896,-0.1005897 z m 1.22926,-6.892e-4 c -0.08148,-0.1318258 0.03102,-0.2624757 0.26609,-0.3090268 0.248005,-0.049114 0.257567,0.1204758 0.0158,0.2809758 -0.15504,0.1029478 -0.230976,0.1105018 -0.281932,0.02805 z M 13.403926,-5.117304 c 0,-0.3185851 0.788647,-0.6961179 0.940589,-0.4502694 0.103816,0.1679756 -0.39432,0.582725 -0.699882,0.582725 -0.135982,0 -0.240707,-0.057628 -0.240707,-0.1324558 z m 0.984792,0.03956 c 0,-0.1340058 0.407236,-0.3995006 0.612787,-0.3995006 0.200575,0 0.230986,0.2001068 0.05687,0.374221 -0.139583,0.1395837 -0.669658,0.1595937 -0.669658,0.02528 z m 5.695557,0.024146 c -0.220231,-0.054996 -0.301232,-0.2969502 -0.177079,-0.5289387 0.266443,-0.4978557 1.573404,-0.7785469 1.653694,-0.3551574 0.08056,0.4248157 -0.919068,1.023324 -1.476617,0.8840961 z m -2.93814,-0.1739837 c 0,-0.1706537 0.297937,-0.3481427 0.584402,-0.3481427 0.257137,0 0.265601,0.2552355 0.013,0.3904524 -0.276503,0.1479777 -0.59735,0.1252537 -0.59735,-0.04231 z m 1.181751,-0.094796 c 0,-0.1988556 0.475721,-0.5487843 0.746062,-0.5487843 0.353791,0 0.398673,0.2034974 0.1013,0.4592873 -0.300007,0.258055 -0.847362,0.3158661 -0.847362,0.089498 z m -2.363501,-0.07015 c 0,-0.1655336 0.312244,-0.3734312 0.566255,-0.3770218 0.274241,-0.00388 0.294337,0.2464373 0.0311,0.3873208 -0.253576,0.13571 -0.597349,0.129782 -0.597349,-0.0103 z m 11.939872,-0.3778289 c -0.450301,-0.2043949 -0.666091,-0.5630306 -0.557329,-0.926265 0.09884,-0.3300757 0.735686,-0.9416986 1.259615,-1.2097136 0.634463,-0.3245569 1.742992,-0.5510434 2.293217,-0.4685326 0.654885,0.098206 1.060928,0.4129677 1.097676,0.8509086 0.0992,1.1823314 -2.70499,2.3837087 -4.093179,1.7536004 z m -12.484173,-0.00664 c -0.156171,-0.2526878 0.654423,-0.7143906 0.869836,-0.4954479 0.0915,0.093002 0.05626,0.1726956 -0.158679,0.3588936 -0.289471,0.2507479 -0.603328,0.3110142 -0.711149,0.1365537 z m 1.726051,-0.1281417 c 0,-0.1856796 0.294977,-0.4306713 0.614578,-0.5104325 0.376511,-0.093966 0.493063,0.206767 0.17876,0.4612688 -0.263099,0.213044 -0.793346,0.2459045 -0.793346,0.049164 z m -6.92637,-0.031676 c -0.2541544,-0.2541543 0.171297,-0.8054871 0.8699,-1.1272826 1.160873,-0.5347303 1.445626,0.2491051 0.324138,0.8922501 -0.485133,0.2782126 -1.041369,0.3877008 -1.194038,0.2350325 z m 4.106086,-0.180545 c -0.08815,-0.2297273 0.02754,-0.4245201 0.379617,-0.6391831 0.348788,-0.2126541 0.91125,-0.2635914 1.017224,-0.09212 0.142865,0.2311591 -0.731385,0.8790224 -1.186184,0.8790224 -0.08468,0 -0.179479,-0.066474 -0.210657,-0.1477197 z m -1.972535,-0.2046465 c -0.09437,-0.2459233 0.275343,-0.6577348 0.858681,-0.9564556 0.587219,-0.3007101 1.044077,-0.3191041 1.213265,-0.04885 0.231132,0.3691987 -0.879945,1.1541368 -1.639921,1.1585498 -0.249819,0.00145 -0.392018,-0.048988 -0.432025,-0.1532455 z m 6.429473,-0.095686 c -0.09834,-0.2562714 0.361317,-0.6884759 0.889476,-0.8363512 0.386462,-0.1082038 0.461596,-0.1031598 0.605402,0.040648 0.1242,0.1241917 0.13874,0.204503 0.05976,0.3297301 -0.19502,0.3091577 -0.606968,0.5416148 -1.047925,0.5913163 -0.358698,0.04043 -0.451947,0.01736 -0.506709,-0.1253417 z M 16.786423,-6.711895 c -0.118455,-0.3086889 0.597309,-0.8334058 1.136844,-0.8334058 0.355773,0 0.450687,0.1238277 0.304407,0.3971508 -0.255725,0.4778299 -1.303583,0.7950079 -1.441251,0.436255 z m 4.453632,-0.1018457 c -0.208052,-0.2080512 -0.19502,-0.3583659 0.05906,-0.6813778 0.494939,-0.629215 2.099421,-1.0045232 2.343635,-0.548206 0.292121,0.5458328 -0.844038,1.3843368 -1.875754,1.3843368 -0.207046,0 -0.440851,-0.068664 -0.526941,-0.1547536 z m 2.962606,-0.02534 c -0.21461,-0.2371411 -0.205656,-0.4284497 0.03434,-0.73355 0.524018,-0.6661804 2.099449,-1.0181498 2.51281,-0.5613926 0.16856,0.1862476 0.16998,0.2205235 0.02216,0.5304996 -0.340831,0.7147305 -2.132009,1.2476556 -2.569312,0.7644418 z m -8.369581,-0.574916 c -0.16514,-0.1651376 -0.0407,-0.5267316 0.277391,-0.8060156 0.399387,-0.3506667 0.941926,-0.5369441 1.428775,-0.4905614 0.6927,0.065996 0.395107,0.6867367 -0.540829,1.1281038 -0.475299,0.2241397 -1.029544,0.3042673 -1.165337,0.1684736 z m 3.082894,-0.3808603 c -0.290949,-0.3505721 0.513849,-1.0519932 1.431631,-1.2477384 1.175863,-0.2507851 1.077215,0.7531374 -0.1233,1.2547413 -0.456686,0.1908156 -1.147231,0.1871196 -1.308339,-0.007 z m -7.300909,-0.0107 c -0.471422,-0.1333989 -0.191607,-0.7636796 0.561005,-1.2636603 0.966308,-0.6419447 2.114169,-0.7801622 2.114169,-0.2545747 0,0.6532716 -1.907071,1.7355855 -2.675174,1.518235 z m 2.699793,-0.1474997 c -0.197935,-0.1994366 -0.147009,-0.3355575 0.264696,-0.7075085 0.644635,-0.5823882 1.597119,-0.7482872 1.662307,-0.2895318 0.07504,0.5281439 -1.555215,1.3716489 -1.927003,0.9970409 z m 7.624289,-0.7551464 c -0.140619,-0.1556377 -0.157339,-0.2421337 -0.07608,-0.3939514 0.164219,-0.3068631 0.674772,-0.6929419 1.073161,-0.8115354 0.506815,-0.1508721 1.205092,-0.085876 1.336877,0.1244377 0.247718,0.3953246 -0.727762,1.112004 -1.664128,1.2226248 -0.411493,0.048614 -0.518401,0.026018 -0.669829,-0.1415757 z m -3.488164,-0.178155 c -0.211369,-0.092834 -0.135039,-0.481772 0.14772,-0.7525978 0.365993,-0.3505613 0.912548,-0.5652841 1.438868,-0.5652841 0.527095,0 0.660193,0.2064988 0.37731,0.5853906 -0.34143,0.4573079 -1.557634,0.9109257 -1.963898,0.7324913 z m 7.677345,-0.2330777 c -0.476925,-0.1129962 -0.734584,-0.3812486 -0.659466,-0.6865784 0.245667,-0.9985608 2.535278,-1.9012288 3.645658,-1.4372828 0.293285,0.122544 0.341515,0.189258 0.341515,0.472411 0,0.626951 -1.001153,1.3414178 -2.250843,1.6062955 -0.359861,0.076274 -0.67645,0.1349137 -0.703532,0.1303097 -0.02708,-0.0046 -0.19508,-0.042924 -0.373332,-0.085156 z m -9.522422,-0.7269209 c -0.16312,-0.1192777 -0.16966,-0.1690453 -0.05768,-0.4393913 0.344589,-0.831907 2.405296,-1.642283 2.905131,-1.142447 0.20841,0.208409 0.19768,0.271513 -0.107899,0.634677 -0.665931,0.791412 -2.218479,1.3281831 -2.739556,0.9471613 z m 4.996412,-0.6020313 c -0.327155,-0.237619 -0.274863,-0.430054 0.255876,-0.94162 1.063327,-1.024909 3.346066,-1.233103 2.980595,-0.271841 -0.326609,0.859051 -2.5676,1.699273 -3.236471,1.213461 z"
       id="path4193-2"
       inkscape:connector-curvature="0"
       sodipodi:nodetypes="sssscssssssssssssssssssscsssssssssssssssssssssssssssssssssssssscsssccscsscsssccssssssssssssssssssssssssssssssssssssssssssssssssssssssccssssssssssssssssssssssscssscsssssscssccssscccsssccsssssscsssssssssssssssssssssssssssssssssssssssscsscsscsssssssssssssssssscsscsssccssssssssssssssssssssscssscsscsssssssssssssssssssssssssssssssssssssssssssssssssssssssssscsssssssssssssssssssssssssssssssssssssssssssssssssssssscsssssssssss" />
  </g>
</svg>
